<?xml version="1.0" encoding="utf-8"?>
<svg width="1593" height="1395" viewBox="0 0 1593 1395" fill="none" xmlns="http://www.w3.org/2000/svg">
  <g>
    <g transform="translate(273 132)">
      <path d="M0 565.5C0 253.183 253.183 0 565.5 0C877.817 0 1131 253.183 1131 565.5C1131 877.817 877.817 1131 565.5 1131C253.183 1131 0 877.817 0 565.5Z" fill="none" stroke-width="2" stroke="#3F3F47" />
      <path d="M0 448C0 200.576 200.576 0 448 0C695.424 0 896 200.576 896 448C896 695.424 695.424 896 448 896C200.576 896 0 695.424 0 448Z" fill="none" stroke-width="2" stroke="#3F3F47" transform="translate(117 116)" />
      <path d="M0 349.5C0 156.476 156.476 0 349.5 0C542.523 0 699 156.476 699 349.5C699 542.523 542.523 699 349.5 699C156.476 699 0 542.523 0 349.5Z" fill="none" stroke-width="2" stroke="#3F3F47" transform="translate(216 214)" />
    </g>
    <g transform="translate(1154 440)">
      <path d="M23 0L116 0C128.704 0 139 10.2957 139 23L139 23C139 35.7043 128.704 46 116 46L23 46C10.2957 46 0 35.7043 0 23L0 23C0 10.2957 10.2957 0 23 0L23 0Z" fill="#155DFC" transform="scale(1 1)" />
      <g transform="translate(17 5)">
        <path d="M0 10.5C0 4.70101 4.70101 0 10.5 0C16.299 0 21 4.70101 21 10.5C21 16.299 16.299 21 10.5 21C4.70101 21 0 16.299 0 10.5Z" fill="#BEDBFF" fill-rule="evenodd" transform="translate(0 7)" />
        <path d="M4.78613 28.0938L0.708008 28.0938L8.13501 7.0022L12.8503 7.0022L20.2844 28.0938L16.2063 28.0938L14.4575 22.8899L6.52783 22.8899L4.78613 28.0938ZM7.56152 19.8242L13.4309 19.8242L10.5776 11.3281L10.4148 11.3281L7.56152 19.8242ZM32.1887 21.4385L32.1887 12.2769L35.9128 12.2769L35.9128 28.0938L32.3019 28.0938L32.3019 25.283L32.132 25.283Q31.601 26.614 30.3762 27.4565Q29.1584 28.2991 27.3742 28.2991Q25.0519 28.2991 23.5793 26.7485Q22.1066 25.198 22.1066 22.3447L22.1066 12.2769L25.8307 12.2769L25.8307 21.7712Q25.8307 23.2722 26.652 24.1572Q27.4804 25.0422 28.8185 25.0422Q29.6398 25.0422 30.4116 24.6458Q31.1833 24.2422 31.686 23.4492Q32.1887 22.6492 32.1887 21.4385ZM46.8419 12.2769L46.8419 15.1584L43.7196 15.1584L43.7196 23.3359Q43.7196 24.4617 44.2152 24.8157Q44.7108 25.1697 45.4117 25.1697Q45.7586 25.1697 46.0489 25.1201Q46.3463 25.0635 46.5021 25.0281L47.1322 27.938Q46.8348 28.0442 46.2826 28.1646Q45.7303 28.292 44.9374 28.3132Q42.8346 28.3699 41.4044 27.2795Q39.9813 26.1892 39.9955 23.9519L39.9955 15.1584L37.7511 15.1584L37.7511 12.2769L39.9955 12.2769L39.9955 8.48902L43.7196 8.48902L43.7196 12.2769L46.8419 12.2769ZM53.2205 18.8259L53.2205 28.0938L49.4963 28.0938L49.4963 7.0022L53.1355 7.0022L53.1355 14.9602L53.3267 14.9602Q53.8718 13.615 55.04 12.8433Q56.2082 12.0715 58.0278 12.0715Q60.4917 12.0715 61.9856 13.615Q63.4795 15.1584 63.4795 18.0188L63.4795 28.0938L59.7483 28.0938L59.7483 18.5994Q59.7483 16.9993 58.927 16.1143Q58.1128 15.2222 56.6401 15.2222Q55.1462 15.2222 54.1833 16.1638Q53.2205 17.1055 53.2205 18.8259Z" fill="#BEDBFF" transform="translate(30 -0.048)" />
      </g>
    </g>
    <g transform="translate(503 300)">
      <path d="M23 0L127 0C139.704 0 150 10.2957 150 23L150 23C150 35.7043 139.704 46 127 46L23 46C10.2957 46 0 35.7043 0 23L0 23C0 10.2957 10.2957 0 23 0L23 0Z" fill="#155DFC" transform="scale(1 1)" />
      <g transform="translate(17 5)">
        <path d="M0 10.5C0 4.70101 4.70101 0 10.5 0C16.299 0 21 4.70101 21 10.5C21 16.299 16.299 21 10.5 21C4.70101 21 0 16.299 0 10.5Z" fill="#BEDBFF" fill-rule="evenodd" transform="translate(0 7)" />
        <path d="M2.08154 28.0938L2.08154 7.0022L15.7957 7.0022L15.7957 10.2024L5.89771 10.2024L5.89771 15.9302L15.0876 15.9302L15.0876 19.1375L5.89771 19.1375L5.89771 24.8936L15.8806 24.8936L15.8806 28.0938L2.08154 28.0938ZM18.7391 28.0938L18.7391 12.2769L22.3004 12.2769L22.3004 14.9602L22.4844 14.9602Q22.9801 13.615 24.1199 12.8433Q25.2669 12.0715 26.8529 12.0715Q28.4459 12.0715 29.5574 12.8433Q30.669 13.615 31.1221 14.9602L31.2921 14.9602Q31.816 13.6433 33.0621 12.8574Q34.3153 12.0715 36.0357 12.0715Q38.2235 12.0715 39.597 13.4522Q40.9776 14.8328 40.9776 17.4736L40.9776 28.0938L37.2393 28.0938L37.2393 18.0542Q37.2393 16.5815 36.4534 15.8948Q35.6746 15.208 34.5418 15.208Q33.1966 15.208 32.439 16.0505Q31.6815 16.886 31.6815 18.2312L31.6815 28.0938L28.0281 28.0938L28.0281 17.8984Q28.0281 16.6736 27.2918 15.9443Q26.5555 15.208 25.366 15.208Q24.1624 15.208 23.3128 16.1143Q22.4632 17.0134 22.4632 18.4719L22.4632 28.0938L18.7391 28.0938ZM48.5186 28.4124Q46.253 28.4124 44.7378 27.2017Q43.2298 25.9839 43.2298 23.6545Q43.2298 21.8704 44.0865 20.8933Q44.9502 19.9092 46.3238 19.4631Q47.6973 19.01 49.2337 18.8472Q51.3223 18.6206 52.2356 18.4294Q53.149 18.2312 53.149 17.4241L53.149 17.3604Q53.149 16.1992 52.4551 15.562Q51.7683 14.9248 50.4656 14.9248Q49.0992 14.9248 48.2991 15.5195Q47.4991 16.1143 47.2229 16.9285L43.7466 16.4329Q44.3626 14.2734 46.1538 13.176Q47.9522 12.0715 50.4444 12.0715Q51.5772 12.0715 52.71 12.3406Q53.8428 12.6025 54.7845 13.2256Q55.7332 13.8416 56.2996 14.8965Q56.8731 15.9443 56.8731 17.509L56.8731 28.0938L53.2906 28.0938L53.2906 25.9202L53.1631 25.9202Q52.6604 26.9185 51.5205 27.6689Q50.3877 28.4124 48.5186 28.4124ZM49.4886 25.6724Q51.1807 25.6724 52.1648 24.7095Q53.156 23.7395 53.156 22.4226L53.156 20.5535Q52.9224 20.7517 52.2852 20.9004Q51.6551 21.0491 50.94 21.1553Q50.232 21.2544 49.7364 21.3252Q48.4903 21.5022 47.6548 22.012Q46.8194 22.5217 46.8194 23.5908Q46.8194 24.6245 47.5699 25.1484Q48.3274 25.6724 49.4886 25.6724ZM59.8358 28.0938L59.8358 12.2769L63.5599 12.2769L63.5599 28.0938L59.8358 28.0938ZM61.705 10.0325Q60.8129 10.0325 60.1757 9.43775Q59.5455 8.84302 59.5455 8.01465Q59.5455 7.16504 60.1757 6.57739Q60.8129 5.98267 61.705 5.98267Q62.59 5.98267 63.2201 6.57739Q63.8573 7.16504 63.8573 8.01465Q63.8573 8.84302 63.2201 9.43775Q62.59 10.0325 61.705 10.0325ZM70.3189 7.0022L70.3189 28.0938L66.5948 28.0938L66.5948 7.0022L70.3189 7.0022ZM85.8501 16.4541L82.4516 16.8293Q82.2392 16.0435 81.5312 15.4487Q80.8303 14.8469 79.5417 14.8469Q78.3735 14.8469 77.5876 15.3567Q76.8017 15.8594 76.8088 16.6594Q76.8017 17.3533 77.3186 17.7922Q77.8425 18.2312 79.0461 18.4932L81.7436 19.0737Q86.1828 20.0437 86.1899 23.3572Q86.1899 24.8511 85.3261 25.991Q84.4624 27.1238 82.9331 27.7681Q81.4109 28.4053 79.4355 28.4053Q76.5256 28.4053 74.7627 27.1804Q72.9997 25.9485 72.6528 23.782L76.2849 23.428Q76.7663 25.5945 79.4284 25.5945Q80.7524 25.5945 81.5595 25.0564Q82.3737 24.5112 82.3737 23.697Q82.3737 22.366 80.2426 21.8916L77.5451 21.3252Q75.2653 20.8508 74.175 19.7251Q73.0847 18.5994 73.0918 16.8718Q73.0918 15.4063 73.8918 14.3301Q74.6989 13.2539 76.1362 12.6663Q77.5805 12.0715 79.4851 12.0715Q82.2675 12.0715 83.8676 13.261Q85.4748 14.4504 85.8501 16.4541Z" fill="#BEDBFF" transform="translate(30 -0.048)" />
      </g>
    </g>
    <g transform="translate(460 598)">
      <path d="M23 0L170 0C182.704 0 193 10.2957 193 23L193 23C193 35.7043 182.704 46 170 46L23 46C10.2957 46 0 35.7043 0 23L0 23C0 10.2957 10.2957 0 23 0L23 0Z" fill="#155DFC" transform="scale(1 1)" />
      <g transform="translate(17 5)">
        <path d="M0 10.5C0 4.70101 4.70101 0 10.5 0C16.299 0 21 4.70101 21 10.5C21 16.299 16.299 21 10.5 21C4.70101 21 0 16.299 0 10.5Z" fill="#BEDBFF" fill-rule="evenodd" transform="translate(0 7)" />
        <path d="M2.08154 28.0938L2.08154 7.0022L9.98999 7.0022Q12.4185 7.0022 14.0681 7.90845Q15.7249 8.8147 16.5745 10.3936Q17.4241 11.9653 17.4241 13.9832Q17.4241 16.0151 16.5674 17.594Q15.7178 19.1658 14.0469 20.0649Q12.376 20.9641 9.94043 20.9641L5.89771 20.9641L5.89771 28.0938L2.08154 28.0938ZM5.89771 17.8276L9.42358 17.8276Q11.5547 17.8276 12.5388 16.7444Q13.53 15.6611 13.53 13.9832Q13.53 12.2981 12.5388 11.2502Q11.5547 10.1953 9.40234 10.1953L5.89771 10.1953L5.89771 17.8276ZM24.0466 28.4124Q21.7809 28.4124 20.2658 27.2017Q18.7578 25.9839 18.7578 23.6545Q18.7578 21.8704 19.6144 20.8933Q20.4782 19.9092 21.8517 19.4631Q23.2253 19.01 24.7617 18.8472Q26.8503 18.6206 27.7636 18.4294Q28.6769 18.2312 28.6769 17.4241L28.6769 17.3604Q28.6769 16.1992 27.9831 15.562Q27.2963 14.9248 25.9936 14.9248Q24.6271 14.9248 23.8271 15.5195Q23.027 16.1143 22.7509 16.9285L19.2746 16.4329Q19.8906 14.2734 21.6818 13.176Q23.4802 12.0715 25.9724 12.0715Q27.1052 12.0715 28.238 12.3406Q29.3708 12.6025 30.3124 13.2256Q31.2612 13.8416 31.8276 14.8965Q32.4011 15.9443 32.4011 17.509L32.4011 28.0938L28.8185 28.0938L28.8185 25.9202L28.6911 25.9202Q28.1884 26.9185 27.0485 27.6689Q25.9157 28.4124 24.0466 28.4124ZM25.0165 25.6724Q26.7087 25.6724 27.6928 24.7095Q28.684 23.7395 28.684 22.4226L28.684 20.5535Q28.4504 20.7517 27.8132 20.9004Q27.183 21.0491 26.468 21.1553Q25.7599 21.2544 25.2643 21.3252Q24.0182 21.5022 23.1828 22.012Q22.3474 22.5217 22.3474 23.5908Q22.3474 24.6245 23.0978 25.1484Q23.8554 25.6724 25.0165 25.6724ZM37.1023 34.0269Q36.3376 34.0269 35.6933 33.9065Q35.0491 33.7861 34.6738 33.6375L35.5376 30.7275Q36.7624 31.0815 37.5908 30.855Q38.4263 30.6284 38.9431 29.2761L39.2617 28.4265L33.5268 12.2769L37.4846 12.2769L41.1308 24.2209L41.2937 24.2209L44.947 12.2769L48.9119 12.2769L42.5823 30.0125Q41.9097 31.9028 40.5928 32.9648Q39.2829 34.0269 37.1023 34.0269ZM50.6909 28.0938L50.6909 12.2769L54.2522 12.2769L54.2522 14.9602L54.4363 14.9602Q54.9319 13.615 56.0718 12.8433Q57.2188 12.0715 58.8047 12.0715Q60.3977 12.0715 61.5093 12.8433Q62.6209 13.615 63.074 14.9602L63.2439 14.9602Q63.7678 13.6433 65.0139 12.8574Q66.2671 12.0715 67.9876 12.0715Q70.1753 12.0715 71.5488 13.4522Q72.9295 14.8328 72.9295 17.4736L72.9295 28.0938L69.1912 28.0938L69.1912 18.0542Q69.1912 16.5815 68.4053 15.8948Q67.6265 15.208 66.4937 15.208Q65.1485 15.208 64.3909 16.0505Q63.6333 16.886 63.6333 18.2312L63.6333 28.0938L59.98 28.0938L59.98 17.8984Q59.98 16.6736 59.2437 15.9443Q58.5073 15.208 57.3179 15.208Q56.1143 15.208 55.2647 16.1143Q54.4151 17.0134 54.4151 18.4719L54.4151 28.0938L50.6909 28.0938ZM82.9272 28.4053Q80.5483 28.4053 78.8208 27.407Q77.0932 26.4016 76.1657 24.582Q75.2453 22.7625 75.2453 20.2773Q75.2453 17.8347 76.1657 15.9868Q77.0932 14.1389 78.7783 13.1052Q80.4634 12.0715 82.729 12.0715Q84.676 12.0715 86.3186 12.9141Q87.9682 13.7495 88.9594 15.5195Q89.9577 17.2825 89.9577 20.0579L89.9577 21.2048L78.9411 21.2048Q78.9695 23.2297 80.0669 24.3626Q81.1643 25.4954 82.9768 25.4954Q84.1804 25.4954 85.0583 24.9785Q85.9433 24.4617 86.3257 23.4563L89.802 23.8528Q89.3064 25.9131 87.501 27.1592Q85.6955 28.4053 82.9272 28.4053ZM78.9482 18.6914L86.3823 18.6914Q86.3752 17.0772 85.3769 16.0293Q84.3857 14.9744 82.7785 14.9744Q81.1147 14.9744 80.074 16.0789Q79.0332 17.1763 78.9482 18.6914ZM96.037 18.8259L96.037 28.0938L92.3129 28.0938L92.3129 12.2769L95.8742 12.2769L95.8742 14.9602L96.0582 14.9602Q96.6034 13.6433 97.7999 12.8574Q99.0036 12.0715 100.774 12.0715Q103.223 12.0715 104.71 13.6292Q106.204 15.1797 106.19 18.0188L106.19 28.0938L102.466 28.0938L102.466 18.5994Q102.466 17.0134 101.644 16.1213Q100.823 15.2222 99.3859 15.2222Q97.9132 15.2222 96.9716 16.1638Q96.037 17.1055 96.037 18.8259ZM117.089 12.2769L117.089 15.1584L113.967 15.1584L113.967 23.3359Q113.967 24.4617 114.463 24.8157Q114.958 25.1697 115.659 25.1697Q116.006 25.1697 116.296 25.1201Q116.594 25.0635 116.749 25.0281L117.38 27.938Q117.082 28.0442 116.53 28.1646Q115.978 28.292 115.185 28.3132Q113.082 28.3699 111.652 27.2795Q110.229 26.1892 110.243 23.9519L110.243 15.1584L107.999 15.1584L107.999 12.2769L110.243 12.2769L110.243 8.48902L113.967 8.48902L113.967 12.2769L117.089 12.2769ZM131.674 16.4541L128.275 16.8293Q128.063 16.0435 127.355 15.4487Q126.654 14.8469 125.365 14.8469Q124.197 14.8469 123.411 15.3567Q122.625 15.8594 122.632 16.6594Q122.625 17.3533 123.142 17.7922Q123.666 18.2312 124.87 18.4932L127.567 19.0737Q132.006 20.0437 132.014 23.3572Q132.014 24.8511 131.15 25.991Q130.286 27.1238 128.757 27.7681Q127.234 28.4053 125.259 28.4053Q122.349 28.4053 120.586 27.1804Q118.823 25.9485 118.476 23.782L122.109 23.428Q122.59 25.5945 125.252 25.5945Q126.576 25.5945 127.383 25.0564Q128.197 24.5112 128.197 23.697Q128.197 22.366 126.066 21.8916L123.369 21.3252Q121.089 20.8508 119.999 19.7251Q118.908 18.5994 118.915 16.8718Q118.915 15.4063 119.715 14.3301Q120.523 13.2539 121.96 12.6663Q123.404 12.0715 125.309 12.0715Q128.091 12.0715 129.691 13.261Q131.298 14.4504 131.674 16.4541Z" fill="#BEDBFF" transform="translate(30 -0.048)" />
      </g>
    </g>
    <g transform="translate(1154 1095)">
      <path d="M23 0L137 0C149.704 0 160 10.2957 160 23L160 23C160 35.7043 149.704 46 137 46L23 46C10.2957 46 0 35.7043 0 23L0 23C0 10.2957 10.2957 0 23 0L23 0Z" fill="#155DFC" transform="scale(1 1)" />
      <g transform="translate(17 5)">
        <path d="M0 10.5C0 4.70101 4.70101 0 10.5 0C16.299 0 21 4.70101 21 10.5C21 16.299 16.299 21 10.5 21C4.70101 21 0 16.299 0 10.5Z" fill="#BEDBFF" fill-rule="evenodd" transform="translate(0 7)" />
        <path d="M9.22534 28.0938L2.08154 28.0938L2.08154 7.0022L9.37402 7.0022Q12.5105 7.0022 14.769 8.26245Q17.0347 9.52271 18.2454 11.8875Q19.4631 14.2451 19.4631 17.5303Q19.4631 20.8225 18.2383 23.1943Q17.0205 25.5591 14.7266 26.8264Q12.4397 28.0938 9.22534 28.0938ZM5.89771 24.7874L9.04126 24.7874Q15.6753 24.7874 15.6753 17.5303Q15.6753 10.3086 9.15454 10.3086L5.89771 10.3086L5.89771 24.7874ZM29.0232 28.4053Q26.708 28.4053 25.0088 27.3857Q23.3096 26.3662 22.375 24.5254Q21.4475 22.6846 21.4475 20.249Q21.4475 17.7922 22.375 15.9585Q23.3096 14.1177 25.0088 13.0981Q26.708 12.0715 29.0232 12.0715Q31.3384 12.0715 33.0447 13.0981Q34.751 14.1177 35.6785 15.9585Q36.606 17.7922 36.606 20.249Q36.606 22.6846 35.6785 24.5254Q34.751 26.3662 33.0447 27.3857Q31.3384 28.4053 29.0232 28.4053ZM29.0445 25.4175Q30.3118 25.4175 31.1472 24.7307Q31.9898 24.0369 32.4075 22.8616Q32.8252 21.6792 32.8252 20.2349Q32.8252 18.7834 32.4075 17.6082Q31.9898 16.4258 31.1472 15.7249Q30.3118 15.0239 29.0445 15.0239Q27.77 15.0239 26.9204 15.7249Q26.0708 16.4258 25.646 17.6082Q25.2212 18.7834 25.2212 20.2349Q25.2212 21.6792 25.646 22.8616Q26.0708 24.0369 26.9204 24.7307Q27.77 25.4175 29.0445 25.4175ZM45.8539 28.4053Q43.4962 28.4053 41.797 27.3645Q40.0978 26.3237 39.1845 24.4829Q38.2782 22.635 38.2782 20.249Q38.2782 17.8276 39.1986 15.9939Q40.1261 14.1531 41.8183 13.1123Q43.5175 12.0715 45.8327 12.0715Q47.7726 12.0715 49.2523 12.7795Q50.7392 13.4805 51.6242 14.762Q52.5092 16.0364 52.6295 17.7568L49.0683 17.7568Q48.8488 16.6099 48.0416 15.8452Q47.2345 15.0735 45.8822 15.0735Q44.1688 15.0735 43.1068 16.4329Q42.0519 17.7852 42.0519 20.1853Q42.0519 22.6067 43.0998 23.9873Q44.1476 25.3679 45.8822 25.3679Q47.1142 25.3679 47.9708 24.667Q48.8275 23.9661 49.0683 22.6846L52.6295 22.6846Q52.495 24.3626 51.6383 25.6511Q50.7887 26.9397 49.3161 27.676Q47.8434 28.4053 45.8539 28.4053ZM54.9029 28.0938L54.9029 7.0022L58.6271 7.0022L58.6271 18.6277L58.8819 18.6277L64.5672 12.2769L68.9286 12.2769L62.7972 19.1021L69.2897 28.0938L64.8292 28.0938L59.9864 21.3252L58.6271 22.7766L58.6271 28.0938L54.9029 28.0938ZM76.9439 28.4053Q74.565 28.4053 72.8375 27.407Q71.1099 26.4016 70.1824 24.582Q69.262 22.7625 69.262 20.2773Q69.262 17.8347 70.1824 15.9868Q71.1099 14.1389 72.795 13.1052Q74.48 12.0715 76.7457 12.0715Q78.6927 12.0715 80.3353 12.9141Q81.9849 13.7495 82.9761 15.5195Q83.9744 17.2825 83.9744 20.0579L83.9744 21.2048L72.9578 21.2048Q72.9862 23.2297 74.0836 24.3626Q75.181 25.4954 76.9935 25.4954Q78.1971 25.4954 79.075 24.9785Q79.96 24.4617 80.3424 23.4563L83.8187 23.8528Q83.3231 25.9131 81.5176 27.1592Q79.7122 28.4053 76.9439 28.4053ZM72.9649 18.6914L80.399 18.6914Q80.3919 17.0772 79.3936 16.0293Q78.4024 14.9744 76.7952 14.9744Q75.1314 14.9744 74.0906 16.0789Q73.0499 17.1763 72.9649 18.6914ZM86.3296 28.0938L86.3296 12.2769L89.9404 12.2769L89.9404 14.9106L90.1033 14.9106Q90.5351 13.53 91.5901 12.7937Q92.6521 12.0503 94.0115 12.0503Q94.3159 12.0503 94.6982 12.0786Q95.0876 12.0999 95.3496 12.1494L95.3496 15.5833Q95.1089 15.4983 94.5991 15.4346Q94.0893 15.3638 93.615 15.3638Q92.0857 15.3638 91.0661 16.3267Q90.0537 17.2896 90.0537 18.7976L90.0537 28.0938L86.3296 28.0938Z" fill="#BEDBFF" transform="translate(30 -0.048)" />
      </g>
    </g>
    <g transform="translate(951 152)">
      <path d="M23 0L162 0C174.704 0 185 10.2957 185 23L185 23C185 35.7043 174.704 46 162 46L23 46C10.2957 46 0 35.7043 0 23L0 23C0 10.2957 10.2957 0 23 0L23 0Z" fill="#155DFC" transform="scale(1 1)" />
      <g transform="translate(17 5)">
        <path d="M0 10.5C0 4.70101 4.70101 0 10.5 0C16.299 0 21 4.70101 21 10.5C21 16.299 16.299 21 10.5 21C4.70101 21 0 16.299 0 10.5Z" fill="#BEDBFF" fill-rule="evenodd" transform="translate(0 7)" />
        <path d="M4.78613 28.0938L0.708008 28.0938L8.13501 7.0022L12.8503 7.0022L20.2844 28.0938L16.2063 28.0938L14.4575 22.8899L6.52783 22.8899L4.78613 28.0938ZM7.56152 19.8242L13.4309 19.8242L10.5776 11.3281L10.4148 11.3281L7.56152 19.8242ZM25.8307 18.8259L25.8307 28.0938L22.1066 28.0938L22.1066 12.2769L25.6679 12.2769L25.6679 14.9602L25.852 14.9602Q26.3972 13.6433 27.5937 12.8574Q28.7973 12.0715 30.5673 12.0715Q33.017 12.0715 34.5038 13.6292Q35.9977 15.1797 35.9836 18.0188L35.9836 28.0938L32.2595 28.0938L32.2595 18.5994Q32.2595 17.0134 31.4382 16.1213Q30.6169 15.2222 29.1796 15.2222Q27.707 15.2222 26.7653 16.1638Q25.8307 17.1055 25.8307 18.8259ZM43.5342 28.4124Q41.2686 28.4124 39.7535 27.2017Q38.2454 25.9839 38.2454 23.6545Q38.2454 21.8704 39.1021 20.8933Q39.9659 19.9092 41.3394 19.4631Q42.7129 19.01 44.2493 18.8472Q46.3379 18.6206 47.2513 18.4294Q48.1646 18.2312 48.1646 17.4241L48.1646 17.3604Q48.1646 16.1992 47.4707 15.562Q46.784 14.9248 45.4812 14.9248Q44.1148 14.9248 43.3147 15.5195Q42.5147 16.1143 42.2386 16.9285L38.7622 16.4329Q39.3782 14.2734 41.1695 13.176Q42.9678 12.0715 45.46 12.0715Q46.5928 12.0715 47.7256 12.3406Q48.8584 12.6025 49.8001 13.2256Q50.7488 13.8416 51.3152 14.8965Q51.8887 15.9443 51.8887 17.509L51.8887 28.0938L48.3062 28.0938L48.3062 25.9202L48.1787 25.9202Q47.6761 26.9185 46.5362 27.6689Q45.4034 28.4124 43.5342 28.4124ZM44.5042 25.6724Q46.1963 25.6724 47.1805 24.7095Q48.1717 23.7395 48.1717 22.4226L48.1717 20.5535Q47.938 20.7517 47.3008 20.9004Q46.6707 21.0491 45.9556 21.1553Q45.2476 21.2544 44.752 21.3252Q43.5059 21.5022 42.6704 22.012Q41.835 22.5217 41.835 23.5908Q41.835 24.6245 42.5855 25.1484Q43.3431 25.6724 44.5042 25.6724ZM58.5756 7.0022L58.5756 28.0938L54.8514 28.0938L54.8514 7.0022L58.5756 7.0022ZM63.9256 34.0269Q63.1609 34.0269 62.5166 33.9065Q61.8724 33.7861 61.4971 33.6375L62.3609 30.7275Q63.5857 31.0815 64.4141 30.855Q65.2496 30.6284 65.7664 29.2761L66.085 28.4265L60.3501 12.2769L64.3079 12.2769L67.9541 24.2209L68.117 24.2209L71.7703 12.2769L75.7352 12.2769L69.4056 30.0125Q68.733 31.9028 67.4161 32.9648Q66.1062 34.0269 63.9256 34.0269ZM85.4085 12.2769L85.4085 15.1584L82.2862 15.1584L82.2862 23.3359Q82.2862 24.4617 82.7818 24.8157Q83.2774 25.1697 83.9783 25.1697Q84.3253 25.1697 84.6156 25.1201Q84.9129 25.0635 85.0687 25.0281L85.6988 27.938Q85.4014 28.0442 84.8492 28.1646Q84.297 28.292 83.504 28.3132Q81.4012 28.3699 79.971 27.2795Q78.5479 26.1892 78.5621 23.9519L78.5621 15.1584L76.3177 15.1584L76.3177 12.2769L78.5621 12.2769L78.5621 8.48902L82.2862 8.48902L82.2862 12.2769L85.4085 12.2769ZM87.7334 28.0938L87.7334 12.2769L91.4575 12.2769L91.4575 28.0938L87.7334 28.0938ZM89.6026 10.0325Q88.7105 10.0325 88.0733 9.43775Q87.4431 8.84302 87.4431 8.01465Q87.4431 7.16504 88.0733 6.57739Q88.7105 5.98267 89.6026 5.98267Q90.4876 5.98267 91.1177 6.57739Q91.7549 7.16504 91.7549 8.01465Q91.7549 8.84302 91.1177 9.43775Q90.4876 10.0325 89.6026 10.0325ZM101.388 28.4053Q99.0307 28.4053 97.3315 27.3645Q95.6323 26.3237 94.7189 24.4829Q93.8127 22.635 93.8127 20.249Q93.8127 17.8276 94.7331 15.9939Q95.6606 14.1531 97.3527 13.1123Q99.0519 12.0715 101.367 12.0715Q103.307 12.0715 104.787 12.7795Q106.274 13.4805 107.159 14.762Q108.044 16.0364 108.164 17.7568L104.603 17.7568Q104.383 16.6099 103.576 15.8452Q102.769 15.0735 101.417 15.0735Q99.7033 15.0735 98.6413 16.4329Q97.5864 17.7852 97.5864 20.1853Q97.5864 22.6067 98.6342 23.9873Q99.6821 25.3679 101.417 25.3679Q102.649 25.3679 103.505 24.667Q104.362 23.9661 104.603 22.6846L108.164 22.6846Q108.029 24.3626 107.173 25.6511Q106.323 26.9397 104.851 27.676Q103.378 28.4053 101.388 28.4053ZM122.934 16.4541L119.535 16.8293Q119.323 16.0435 118.615 15.4487Q117.914 14.8469 116.625 14.8469Q115.457 14.8469 114.671 15.3567Q113.885 15.8594 113.892 16.6594Q113.885 17.3533 114.402 17.7922Q114.926 18.2312 116.13 18.4932L118.827 19.0737Q123.266 20.0437 123.274 23.3572Q123.274 24.8511 122.41 25.991Q121.546 27.1238 120.017 27.7681Q118.495 28.4053 116.519 28.4053Q113.609 28.4053 111.846 27.1804Q110.083 25.9485 109.736 23.782L113.369 23.428Q113.85 25.5945 116.512 25.5945Q117.836 25.5945 118.643 25.0564Q119.457 24.5112 119.457 23.697Q119.457 22.366 117.326 21.8916L114.629 21.3252Q112.349 20.8508 111.259 19.7251Q110.168 18.5994 110.175 16.8718Q110.175 15.4063 110.975 14.3301Q111.783 13.2539 113.22 12.6663Q114.664 12.0715 116.569 12.0715Q119.351 12.0715 120.951 13.261Q122.558 14.4504 122.934 16.4541Z" fill="#BEDBFF" transform="translate(30 -0.048)" />
      </g>
    </g>
    <g transform="matrix(1 -0 0 1 637 486)">
      <path d="M339.37 126.044C374.512 126.044 403.001 97.828 403.001 63.022C403.001 28.2158 374.512 6.50359e-11 339.37 5.30501e-11C304.227 4.10642e-11 275.738 28.216 275.738 63.022C275.738 97.8282 304.227 126.044 339.37 126.044L339.37 126.044ZM63.829 210.074C63.829 244.88 92.3179 273.096 127.461 273.096C162.604 273.096 191.092 244.88 191.092 210.074C191.092 175.268 162.604 147.052 127.461 147.052C92.3179 147.052 63.829 175.268 63.829 210.074L63.829 210.074ZM212.302 210.073C212.302 244.88 240.791 273.095 275.934 273.095C311.077 273.095 339.566 244.88 339.566 210.073C339.566 175.267 311.077 147.051 275.934 147.051C240.791 147.051 212.302 175.267 212.302 210.073L212.302 210.073ZM63.6317 420.001C98.7745 420.001 127.263 391.785 127.263 356.979C127.263 322.173 98.7744 293.957 63.6316 293.957C28.4888 293.957 -1.31367e-11 322.173 -2.40184e-11 356.979C-3.49002e-11 391.785 28.4889 420.001 63.6317 420.001L63.6317 420.001Z" fill="#DBEAFE" fill-rule="evenodd" transform="matrix(1 0 -0 1 0 0)" />
    </g>
    <g transform="translate(152 796)">
      <path d="M23 0L220 0C232.704 0 243 10.2957 243 23L243 23C243 35.7043 232.704 46 220 46L23 46C10.2957 46 0 35.7043 0 23L0 23C0 10.2957 10.2957 0 23 0L23 0Z" fill="#155DFC" transform="scale(1 1)" />
      <g transform="translate(17 5)">
        <path d="M0 10.5C0 4.70101 4.70101 0 10.5 0C16.299 0 21 4.70101 21 10.5C21 16.299 16.299 21 10.5 21C4.70101 21 0 16.299 0 10.5Z" fill="#BEDBFF" fill-rule="evenodd" transform="translate(0 7)" />
        <path d="M20.1357 14.1177L16.2842 14.1177Q15.9514 12.2273 14.5708 11.1865Q13.1902 10.1458 11.2644 10.1458Q8.68018 10.1458 7.03052 12.0645Q5.38794 13.9761 5.38794 17.5515Q5.38794 21.1765 7.0376 23.0669Q8.69434 24.9502 11.2573 24.9502Q13.1477 24.9502 14.5354 23.9519Q15.9231 22.9465 16.2842 21.0916L20.1357 21.1128Q19.8455 23.1306 18.6772 24.7803Q17.5161 26.4229 15.6116 27.407Q13.7141 28.384 11.2078 28.384Q8.42529 28.384 6.23755 27.0955Q4.05688 25.7998 2.79663 23.3784Q1.54346 20.95 1.54346 17.5515Q1.54346 14.1389 2.81079 11.7175Q4.07812 9.28906 6.26587 8.00049Q8.45361 6.71192 11.2078 6.71192Q13.5442 6.71192 15.4417 7.58985Q17.3391 8.46778 18.5781 10.1245Q19.8171 11.7742 20.1357 14.1177ZM29.5793 28.4053Q27.2641 28.4053 25.5649 27.3857Q23.8657 26.3662 22.9311 24.5254Q22.0036 22.6846 22.0036 20.249Q22.0036 17.7922 22.9311 15.9585Q23.8657 14.1177 25.5649 13.0981Q27.2641 12.0715 29.5793 12.0715Q31.8945 12.0715 33.6008 13.0981Q35.3071 14.1177 36.2346 15.9585Q37.1621 17.7922 37.1621 20.249Q37.1621 22.6846 36.2346 24.5254Q35.3071 26.3662 33.6008 27.3857Q31.8945 28.4053 29.5793 28.4053ZM29.6006 25.4175Q30.8679 25.4175 31.7034 24.7307Q32.5459 24.0369 32.9636 22.8616Q33.3813 21.6792 33.3813 20.2349Q33.3813 18.7834 32.9636 17.6082Q32.5459 16.4258 31.7034 15.7249Q30.8679 15.0239 29.6006 15.0239Q28.3262 15.0239 27.4765 15.7249Q26.6269 16.4258 26.2021 17.6082Q25.7773 18.7834 25.7773 20.2349Q25.7773 21.6792 26.2021 22.8616Q26.6269 24.0369 27.4765 24.7307Q28.3262 25.4175 29.6006 25.4175ZM43.2381 7.0022L43.2381 28.0938L39.514 28.0938L39.514 7.0022L43.2381 7.0022ZM49.9971 7.0022L49.9971 28.0938L46.273 28.0938L46.273 7.0022L49.9971 7.0022ZM57.5773 28.4124Q55.3117 28.4124 53.7966 27.2017Q52.2885 25.9839 52.2885 23.6545Q52.2885 21.8704 53.1452 20.8933Q54.009 19.9092 55.3825 19.4631Q56.756 19.01 58.2924 18.8472Q60.381 18.6206 61.2944 18.4294Q62.2077 18.2312 62.2077 17.4241L62.2077 17.3604Q62.2077 16.1992 61.5138 15.562Q60.8271 14.9248 59.5243 14.9248Q58.1579 14.9248 57.3578 15.5195Q56.5578 16.1143 56.2817 16.9285L52.8054 16.4329Q53.4213 14.2734 55.2126 13.176Q57.0109 12.0715 59.5031 12.0715Q60.6359 12.0715 61.7687 12.3406Q62.9015 12.6025 63.8432 13.2256Q64.7919 13.8416 65.3583 14.8965Q65.9318 15.9443 65.9318 17.509L65.9318 28.0938L62.3493 28.0938L62.3493 25.9202L62.2219 25.9202Q61.7192 26.9185 60.5793 27.6689Q59.4465 28.4124 57.5773 28.4124ZM58.5473 25.6724Q60.2394 25.6724 61.2236 24.7095Q62.2148 23.7395 62.2148 22.4226L62.2148 20.5535Q61.9811 20.7517 61.3439 20.9004Q60.7138 21.0491 59.9987 21.1553Q59.2907 21.2544 58.7951 21.3252Q57.549 21.5022 56.7136 22.012Q55.8781 22.5217 55.8781 23.5908Q55.8781 24.6245 56.6286 25.1484Q57.3862 25.6724 58.5473 25.6724ZM69.0574 28.0938L69.0574 7.0022L72.7815 7.0022L72.7815 14.8894L72.9373 14.8894Q73.2276 14.3159 73.7444 13.6646Q74.2683 13.0061 75.1675 12.5388Q76.0667 12.0715 77.4614 12.0715Q79.2952 12.0715 80.7678 13.0061Q82.2476 13.9407 83.1184 15.7532Q83.9893 17.5657 83.9893 20.2065Q83.9893 22.812 83.1326 24.6387Q82.2759 26.4583 80.8032 27.4141Q79.3306 28.3699 77.4685 28.3699Q76.1092 28.3699 75.21 27.9167Q74.3179 27.4636 73.7727 26.8193Q73.2346 26.1751 72.9373 25.6016L72.7249 25.6016L72.7249 28.0938L69.0574 28.0938ZM72.7107 20.1853Q72.7107 22.4792 73.6807 23.8953Q74.6507 25.3113 76.4278 25.3113Q78.2757 25.3113 79.2315 23.8599Q80.1873 22.4084 80.1873 20.1853Q80.1873 17.9692 79.2385 16.5532Q78.2969 15.1301 76.4278 15.1301Q74.6294 15.1301 73.6665 16.5037Q72.7107 17.8772 72.7107 20.1853ZM93.27 28.4053Q90.9548 28.4053 89.2556 27.3857Q87.5564 26.3662 86.6218 24.5254Q85.6943 22.6846 85.6943 20.249Q85.6943 17.7922 86.6218 15.9585Q87.5564 14.1177 89.2556 13.0981Q90.9548 12.0715 93.27 12.0715Q95.5852 12.0715 97.2915 13.0981Q98.9978 14.1177 99.9253 15.9585Q100.853 17.7922 100.853 20.249Q100.853 22.6846 99.9253 24.5254Q98.9978 26.3662 97.2915 27.3857Q95.5852 28.4053 93.27 28.4053ZM93.2913 25.4175Q94.5586 25.4175 95.3941 24.7307Q96.2366 24.0369 96.6543 22.8616Q97.072 21.6792 97.072 20.2349Q97.072 18.7834 96.6543 17.6082Q96.2366 16.4258 95.3941 15.7249Q94.5586 15.0239 93.2913 15.0239Q92.0169 15.0239 91.1672 15.7249Q90.3176 16.4258 89.8928 17.6082Q89.468 18.7834 89.468 20.2349Q89.468 21.6792 89.8928 22.8616Q90.3176 24.0369 91.1672 24.7307Q92.0169 25.4175 93.2913 25.4175ZM103.205 28.0938L103.205 12.2769L106.816 12.2769L106.816 14.9106L106.978 14.9106Q107.41 13.53 108.465 12.7937Q109.527 12.0503 110.887 12.0503Q111.191 12.0503 111.573 12.0786Q111.963 12.0999 112.225 12.1494L112.225 15.5833Q111.984 15.4983 111.474 15.4346Q110.964 15.3638 110.49 15.3638Q108.961 15.3638 107.941 16.3267Q106.929 17.2896 106.929 18.7976L106.929 28.0938L103.205 28.0938ZM118.155 28.4124Q115.889 28.4124 114.374 27.2017Q112.866 25.9839 112.866 23.6545Q112.866 21.8704 113.723 20.8933Q114.586 19.9092 115.96 19.4631Q117.333 19.01 118.87 18.8472Q120.958 18.6206 121.872 18.4294Q122.785 18.2312 122.785 17.4241L122.785 17.3604Q122.785 16.1992 122.091 15.562Q121.404 14.9248 120.102 14.9248Q118.735 14.9248 117.935 15.5195Q117.135 16.1143 116.859 16.9285L113.383 16.4329Q113.999 14.2734 115.79 13.176Q117.588 12.0715 120.08 12.0715Q121.213 12.0715 122.346 12.3406Q123.479 12.6025 124.421 13.2256Q125.369 13.8416 125.936 14.8965Q126.509 15.9443 126.509 17.509L126.509 28.0938L122.927 28.0938L122.927 25.9202L122.799 25.9202Q122.297 26.9185 121.157 27.6689Q120.024 28.4124 118.155 28.4124ZM119.125 25.6724Q120.817 25.6724 121.801 24.7095Q122.792 23.7395 122.792 22.4226L122.792 20.5535Q122.558 20.7517 121.921 20.9004Q121.291 21.0491 120.576 21.1553Q119.868 21.2544 119.372 21.3252Q118.126 21.5022 117.291 22.012Q116.455 22.5217 116.455 23.5908Q116.455 24.6245 117.206 25.1484Q117.964 25.6724 119.125 25.6724ZM137.366 12.2769L137.366 15.1584L134.244 15.1584L134.244 23.3359Q134.244 24.4617 134.739 24.8157Q135.235 25.1697 135.936 25.1697Q136.283 25.1697 136.573 25.1201Q136.871 25.0635 137.026 25.0281L137.656 27.938Q137.359 28.0442 136.807 28.1646Q136.255 28.292 135.462 28.3132Q133.359 28.3699 131.929 27.2795Q130.506 26.1892 130.52 23.9519L130.52 15.1584L128.275 15.1584L128.275 12.2769L130.52 12.2769L130.52 8.48902L134.244 8.48902L134.244 12.2769L137.366 12.2769ZM139.691 28.0938L139.691 12.2769L143.415 12.2769L143.415 28.0938L139.691 28.0938ZM141.56 10.0325Q140.668 10.0325 140.031 9.43775Q139.401 8.84302 139.401 8.01465Q139.401 7.16504 140.031 6.57739Q140.668 5.98267 141.56 5.98267Q142.445 5.98267 143.075 6.57739Q143.713 7.16504 143.713 8.01465Q143.713 8.84302 143.075 9.43775Q142.445 10.0325 141.56 10.0325ZM153.346 28.4053Q151.031 28.4053 149.332 27.3857Q147.632 26.3662 146.698 24.5254Q145.77 22.6846 145.77 20.249Q145.77 17.7922 146.698 15.9585Q147.632 14.1177 149.332 13.0981Q151.031 12.0715 153.346 12.0715Q155.661 12.0715 157.367 13.0981Q159.074 14.1177 160.001 15.9585Q160.929 17.7922 160.929 20.249Q160.929 22.6846 160.001 24.5254Q159.074 26.3662 157.367 27.3857Q155.661 28.4053 153.346 28.4053ZM153.367 25.4175Q154.635 25.4175 155.47 24.7307Q156.313 24.0369 156.73 22.8616Q157.148 21.6792 157.148 20.2349Q157.148 18.7834 156.73 17.6082Q156.313 16.4258 155.47 15.7249Q154.635 15.0239 153.367 15.0239Q152.093 15.0239 151.243 15.7249Q150.394 16.4258 149.969 17.6082Q149.544 18.7834 149.544 20.2349Q149.544 21.6792 149.969 22.8616Q150.394 24.0369 151.243 24.7307Q152.093 25.4175 153.367 25.4175ZM167.005 18.8259L167.005 28.0938L163.281 28.0938L163.281 12.2769L166.842 12.2769L166.842 14.9602L167.026 14.9602Q167.571 13.6433 168.768 12.8574Q169.971 12.0715 171.741 12.0715Q174.191 12.0715 175.678 13.6292Q177.172 15.1797 177.158 18.0188L177.158 28.0938L173.434 28.0938L173.434 18.5994Q173.434 17.0134 172.612 16.1213Q171.791 15.2222 170.354 15.2222Q168.881 15.2222 167.939 16.1638Q167.005 17.1055 167.005 18.8259Z" fill="#BEDBFF" transform="translate(30 -0.048)" />
      </g>
    </g>
    <g transform="translate(837 341)">
      <path d="M23 0L131 0C143.704 0 154 10.2957 154 23L154 23C154 35.7043 143.704 46 131 46L23 46C10.2957 46 0 35.7043 0 23L0 23C0 10.2957 10.2957 0 23 0L23 0Z" fill="#155DFC" transform="scale(1 1)" />
      <g transform="translate(17 5)">
        <path d="M0 10.5C0 4.70101 4.70101 0 10.5 0C16.299 0 21 4.70101 21 10.5C21 16.299 16.299 21 10.5 21C4.70101 21 0 16.299 0 10.5Z" fill="#BEDBFF" fill-rule="evenodd" transform="translate(0 7)" />
        <path d="M1.15405 10.2024L1.15405 7.0022L17.9834 7.0022L17.9834 10.2024L11.4626 10.2024L11.4626 28.0938L7.6748 28.0938L7.6748 10.2024L1.15405 10.2024ZM24.9483 28.4053Q22.5694 28.4053 20.8419 27.407Q19.1143 26.4016 18.1868 24.582Q17.2664 22.7625 17.2664 20.2773Q17.2664 17.8347 18.1868 15.9868Q19.1143 14.1389 20.7994 13.1052Q22.4844 12.0715 24.7501 12.0715Q26.6971 12.0715 28.3397 12.9141Q29.9893 13.7495 30.9805 15.5195Q31.9788 17.2825 31.9788 20.0579L31.9788 21.2048L20.9622 21.2048Q20.9906 23.2297 22.088 24.3626Q23.1854 25.4954 24.9979 25.4954Q26.2015 25.4954 27.0794 24.9785Q27.9644 24.4617 28.3468 23.4563L31.8231 23.8528Q31.3275 25.9131 29.522 27.1592Q27.7166 28.4053 24.9483 28.4053ZM20.9693 18.6914L28.4034 18.6914Q28.3963 17.0772 27.398 16.0293Q26.4068 14.9744 24.7996 14.9744Q23.1358 14.9744 22.095 16.0789Q21.0543 17.1763 20.9693 18.6914ZM38.8794 28.4124Q36.6138 28.4124 35.0986 27.2017Q33.5906 25.9839 33.5906 23.6545Q33.5906 21.8704 34.4473 20.8933Q35.311 19.9092 36.6846 19.4631Q38.0581 19.01 39.5945 18.8472Q41.6831 18.6206 42.5964 18.4294Q43.5098 18.2312 43.5098 17.4241L43.5098 17.3604Q43.5098 16.1992 42.8159 15.562Q42.1291 14.9248 40.8264 14.9248Q39.46 14.9248 38.6599 15.5195Q37.8599 16.1143 37.5837 16.9285L34.1074 16.4329Q34.7234 14.2734 36.5146 13.176Q38.313 12.0715 40.8052 12.0715Q41.938 12.0715 43.0708 12.3406Q44.2036 12.6025 45.1453 13.2256Q46.094 13.8416 46.6604 14.8965Q47.2339 15.9443 47.2339 17.509L47.2339 28.0938L43.6514 28.0938L43.6514 25.9202L43.5239 25.9202Q43.0212 26.9185 41.8813 27.6689Q40.7485 28.4124 38.8794 28.4124ZM39.8494 25.6724Q41.5415 25.6724 42.5256 24.7095Q43.5168 23.7395 43.5168 22.4226L43.5168 20.5535Q43.2832 20.7517 42.646 20.9004Q42.0159 21.0491 41.3008 21.1553Q40.5928 21.2544 40.0972 21.3252Q38.8511 21.5022 38.0156 22.012Q37.1802 22.5217 37.1802 23.5908Q37.1802 24.6245 37.9307 25.1484Q38.6882 25.6724 39.8494 25.6724ZM50.1966 28.0938L50.1966 12.2769L53.7579 12.2769L53.7579 14.9602L53.942 14.9602Q54.4376 13.615 55.5775 12.8433Q56.7245 12.0715 58.3104 12.0715Q59.9034 12.0715 61.015 12.8433Q62.1266 13.615 62.5797 14.9602L62.7496 14.9602Q63.2735 13.6433 64.5196 12.8574Q65.7728 12.0715 67.4933 12.0715Q69.681 12.0715 71.0545 13.4522Q72.4352 14.8328 72.4352 17.4736L72.4352 28.0938L68.6969 28.0938L68.6969 18.0542Q68.6969 16.5815 67.911 15.8948Q67.1322 15.208 65.9994 15.208Q64.6541 15.208 63.8966 16.0505Q63.139 16.886 63.139 18.2312L63.139 28.0938L59.4857 28.0938L59.4857 17.8984Q59.4857 16.6736 58.7494 15.9443Q58.013 15.208 56.8236 15.208Q55.62 15.208 54.7704 16.1143Q53.9207 17.0134 53.9207 18.4719L53.9207 28.0938L50.1966 28.0938ZM87.927 16.4541L84.5286 16.8293Q84.3162 16.0435 83.6082 15.4487Q82.9073 14.8469 81.6187 14.8469Q80.4505 14.8469 79.6646 15.3567Q78.8787 15.8594 78.8858 16.6594Q78.8787 17.3533 79.3956 17.7922Q79.9195 18.2312 81.1231 18.4932L83.8206 19.0737Q88.2598 20.0437 88.2669 23.3572Q88.2669 24.8511 87.4031 25.991Q86.5394 27.1238 85.0101 27.7681Q83.4878 28.4053 81.5125 28.4053Q78.6026 28.4053 76.8396 27.1804Q75.0767 25.9485 74.7298 23.782L78.3619 23.428Q78.8433 25.5945 81.5054 25.5945Q82.8294 25.5945 83.6365 25.0564Q84.4507 24.5112 84.4507 23.697Q84.4507 22.366 82.3196 21.8916L79.6221 21.3252Q77.3423 20.8508 76.252 19.7251Q75.1617 18.5994 75.1687 16.8718Q75.1687 15.4063 75.9688 14.3301Q76.7759 13.2539 78.2132 12.6663Q79.6575 12.0715 81.5621 12.0715Q84.3445 12.0715 85.9446 13.261Q87.5518 14.4504 87.927 16.4541Z" fill="#BEDBFF" transform="translate(30 -0.048)" />
      </g>
    </g>
    <g transform="translate(877 982)">
      <path d="M23 0L205 0C217.704 0 228 10.2957 228 23L228 23C228 35.7043 217.704 46 205 46L23 46C10.2957 46 0 35.7043 0 23L0 23C0 10.2957 10.2957 0 23 0L23 0Z" fill="#155DFC" transform="scale(1 1)" />
      <g transform="translate(17 5)">
        <path d="M0 10.5C0 4.70101 4.70101 0 10.5 0C16.299 0 21 4.70101 21 10.5C21 16.299 16.299 21 10.5 21C4.70101 21 0 16.299 0 10.5Z" fill="#BEDBFF" fill-rule="evenodd" transform="translate(0 7)" />
        <path d="M9.22534 28.0938L2.08154 28.0938L2.08154 7.0022L9.37402 7.0022Q12.5105 7.0022 14.769 8.26245Q17.0347 9.52271 18.2454 11.8875Q19.4631 14.2451 19.4631 17.5303Q19.4631 20.8225 18.2383 23.1943Q17.0205 25.5591 14.7266 26.8264Q12.4397 28.0938 9.22534 28.0938ZM5.89771 24.7874L9.04126 24.7874Q15.6753 24.7874 15.6753 17.5303Q15.6753 10.3086 9.15454 10.3086L5.89771 10.3086L5.89771 24.7874ZM26.6726 28.4124Q24.407 28.4124 22.8919 27.2017Q21.3838 25.9839 21.3838 23.6545Q21.3838 21.8704 22.2405 20.8933Q23.1043 19.9092 24.4778 19.4631Q25.8513 19.01 27.3877 18.8472Q29.4763 18.6206 30.3897 18.4294Q31.303 18.2312 31.303 17.4241L31.303 17.3604Q31.303 16.1992 30.6092 15.562Q29.9224 14.9248 28.6197 14.9248Q27.2532 14.9248 26.4532 15.5195Q25.6531 16.1143 25.377 16.9285L21.9007 16.4329Q22.5166 14.2734 24.3079 13.176Q26.1062 12.0715 28.5984 12.0715Q29.7312 12.0715 30.864 12.3406Q31.9969 12.6025 32.9385 13.2256Q33.8872 13.8416 34.4536 14.8965Q35.0271 15.9443 35.0271 17.509L35.0271 28.0938L31.4446 28.0938L31.4446 25.9202L31.3172 25.9202Q30.8145 26.9185 29.6746 27.6689Q28.5418 28.4124 26.6726 28.4124ZM27.6426 25.6724Q29.3347 25.6724 30.3189 24.7095Q31.3101 23.7395 31.3101 22.4226L31.3101 20.5535Q31.0764 20.7517 30.4392 20.9004Q29.8091 21.0491 29.094 21.1553Q28.386 21.2544 27.8904 21.3252Q26.6443 21.5022 25.8089 22.012Q24.9734 22.5217 24.9734 23.5908Q24.9734 24.6245 25.7239 25.1484Q26.4815 25.6724 27.6426 25.6724ZM50.4862 16.4541L47.0878 16.8293Q46.8754 16.0435 46.1674 15.4487Q45.4664 14.8469 44.1779 14.8469Q43.0096 14.8469 42.2238 15.3567Q41.4379 15.8594 41.4449 16.6594Q41.4379 17.3533 41.9547 17.7922Q42.4786 18.2312 43.6823 18.4932L46.3798 19.0737Q50.819 20.0437 50.826 23.3572Q50.826 24.8511 49.9623 25.991Q49.0985 27.1238 47.5692 27.7681Q46.047 28.4053 44.0717 28.4053Q41.1617 28.4053 39.3988 27.1804Q37.6359 25.9485 37.2889 23.782L40.921 23.428Q41.4025 25.5945 44.0646 25.5945Q45.3885 25.5945 46.1957 25.0564Q47.0099 24.5112 47.0099 23.697Q47.0099 22.366 44.8788 21.8916L42.1813 21.3252Q39.9015 20.8508 38.8112 19.7251Q37.7208 18.5994 37.7279 16.8718Q37.7279 15.4063 38.528 14.3301Q39.3351 13.2539 40.7723 12.6663Q42.2167 12.0715 44.1212 12.0715Q46.9037 12.0715 48.5038 13.261Q50.111 14.4504 50.4862 16.4541ZM56.8352 18.8259L56.8352 28.0938L53.111 28.0938L53.111 7.0022L56.7502 7.0022L56.7502 14.9602L56.9414 14.9602Q57.4865 13.615 58.6547 12.8433Q59.8229 12.0715 61.6425 12.0715Q64.1064 12.0715 65.6003 13.615Q67.0942 15.1584 67.0942 18.0188L67.0942 28.0938L63.363 28.0938L63.363 18.5994Q63.363 16.9993 62.5417 16.1143Q61.7275 15.2222 60.2548 15.2222Q58.7609 15.2222 57.798 16.1638Q56.8352 17.1055 56.8352 18.8259ZM70.2487 28.0938L70.2487 7.0022L73.9729 7.0022L73.9729 14.8894L74.1286 14.8894Q74.4189 14.3159 74.9357 13.6646Q75.4597 13.0061 76.3588 12.5388Q77.258 12.0715 78.6528 12.0715Q80.4865 12.0715 81.9592 13.0061Q83.4389 13.9407 84.3098 15.7532Q85.1806 17.5657 85.1806 20.2065Q85.1806 22.812 84.3239 24.6387Q83.4672 26.4583 81.9946 27.4141Q80.5219 28.3699 78.6599 28.3699Q77.3005 28.3699 76.4013 27.9167Q75.5092 27.4636 74.9641 26.8193Q74.426 26.1751 74.1286 25.6016L73.9162 25.6016L73.9162 28.0938L70.2487 28.0938ZM73.9021 20.1853Q73.9021 22.4792 74.872 23.8953Q75.842 25.3113 77.6191 25.3113Q79.467 25.3113 80.4228 23.8599Q81.3786 22.4084 81.3786 20.1853Q81.3786 17.9692 80.4299 16.5532Q79.4882 15.1301 77.6191 15.1301Q75.8208 15.1301 74.8579 16.5037Q73.9021 17.8772 73.9021 20.1853ZM94.4614 28.4053Q92.1462 28.4053 90.447 27.3857Q88.7477 26.3662 87.8132 24.5254Q86.8857 22.6846 86.8857 20.249Q86.8857 17.7922 87.8132 15.9585Q88.7477 14.1177 90.447 13.0981Q92.1462 12.0715 94.4614 12.0715Q96.7766 12.0715 98.4828 13.0981Q100.189 14.1177 101.117 15.9585Q102.044 17.7922 102.044 20.249Q102.044 22.6846 101.117 24.5254Q100.189 26.3662 98.4828 27.3857Q96.7766 28.4053 94.4614 28.4053ZM94.4826 25.4175Q95.7499 25.4175 96.5854 24.7307Q97.4279 24.0369 97.8456 22.8616Q98.2634 21.6792 98.2634 20.2349Q98.2634 18.7834 97.8456 17.6082Q97.4279 16.4258 96.5854 15.7249Q95.7499 15.0239 94.4826 15.0239Q93.2082 15.0239 92.3586 15.7249Q91.509 16.4258 91.0842 17.6082Q90.6594 18.7834 90.6594 20.2349Q90.6594 21.6792 91.0842 22.8616Q91.509 24.0369 92.3586 24.7307Q93.2082 25.4175 94.4826 25.4175ZM108.941 28.4124Q106.676 28.4124 105.161 27.2017Q103.653 25.9839 103.653 23.6545Q103.653 21.8704 104.509 20.8933Q105.373 19.9092 106.747 19.4631Q108.12 19.01 109.657 18.8472Q111.745 18.6206 112.659 18.4294Q113.572 18.2312 113.572 17.4241L113.572 17.3604Q113.572 16.1992 112.878 15.562Q112.191 14.9248 110.888 14.9248Q109.522 14.9248 108.722 15.5195Q107.922 16.1143 107.646 16.9285L104.169 16.4329Q104.785 14.2734 106.577 13.176Q108.375 12.0715 110.867 12.0715Q112 12.0715 113.133 12.3406Q114.266 12.6025 115.207 13.2256Q116.156 13.8416 116.722 14.8965Q117.296 15.9443 117.296 17.509L117.296 28.0938L113.713 28.0938L113.713 25.9202L113.586 25.9202Q113.083 26.9185 111.943 27.6689Q110.811 28.4124 108.941 28.4124ZM109.911 25.6724Q111.604 25.6724 112.588 24.7095Q113.579 23.7395 113.579 22.4226L113.579 20.5535Q113.345 20.7517 112.708 20.9004Q112.078 21.0491 111.363 21.1553Q110.655 21.2544 110.159 21.3252Q108.913 21.5022 108.078 22.012Q107.242 22.5217 107.242 23.5908Q107.242 24.6245 107.993 25.1484Q108.75 25.6724 109.911 25.6724ZM120.259 28.0938L120.259 12.2769L123.87 12.2769L123.87 14.9106L124.032 14.9106Q124.464 13.53 125.519 12.7937Q126.581 12.0503 127.941 12.0503Q128.245 12.0503 128.627 12.0786Q129.017 12.0999 129.279 12.1494L129.279 15.5833Q129.038 15.4983 128.528 15.4346Q128.018 15.3638 127.544 15.3638Q126.015 15.3638 124.995 16.3267Q123.983 17.2896 123.983 18.7976L123.983 28.0938L120.259 28.0938ZM136.172 28.3699Q134.303 28.3699 132.83 27.4141Q131.358 26.4583 130.501 24.6387Q129.651 22.812 129.651 20.2065Q129.651 17.5657 130.522 15.7532Q131.393 13.9407 132.873 13.0061Q134.36 12.0715 136.179 12.0715Q137.581 12.0715 138.473 12.5388Q139.365 13.0061 139.889 13.6646Q140.42 14.3159 140.703 14.8894L140.852 14.8894L140.852 7.0022L144.59 7.0022L144.59 28.0938L140.93 28.0938L140.93 25.6016L140.703 25.6016Q140.413 26.1751 139.868 26.8193Q139.323 27.4636 138.424 27.9167Q137.532 28.3699 136.172 28.3699ZM137.213 25.3113Q138.99 25.3113 139.96 23.8953Q140.93 22.4792 140.93 20.1853Q140.93 17.8772 139.967 16.5037Q139.011 15.1301 137.213 15.1301Q135.344 15.1301 134.395 16.5532Q133.453 17.9692 133.453 20.1853Q133.453 22.4084 134.409 23.8599Q135.365 25.3113 137.213 25.3113ZM160.279 16.4541L156.88 16.8293Q156.668 16.0435 155.96 15.4487Q155.259 14.8469 153.97 14.8469Q152.802 14.8469 152.016 15.3567Q151.23 15.8594 151.237 16.6594Q151.23 17.3533 151.747 17.7922Q152.271 18.2312 153.475 18.4932L156.172 19.0737Q160.611 20.0437 160.618 23.3572Q160.618 24.8511 159.755 25.991Q158.891 27.1238 157.362 27.7681Q155.839 28.4053 153.864 28.4053Q150.954 28.4053 149.191 27.1804Q147.428 25.9485 147.081 23.782L150.713 23.428Q151.195 25.5945 153.857 25.5945Q155.181 25.5945 155.988 25.0564Q156.802 24.5112 156.802 23.697Q156.802 22.366 154.671 21.8916L151.974 21.3252Q149.694 20.8508 148.604 19.7251Q147.513 18.5994 147.52 16.8718Q147.52 15.4063 148.32 14.3301Q149.127 13.2539 150.565 12.6663Q152.009 12.0715 153.914 12.0715Q156.696 12.0715 158.296 13.261Q159.903 14.4504 160.279 16.4541Z" fill="#BEDBFF" transform="translate(30 -0.048)" />
      </g>
    </g>
  </g>
</svg>