<?xml version="1.0" encoding="utf-8"?>
<svg width="631.385" height="664.384" viewBox="0 0 631.385 664.384" fill="none" xmlns="http://www.w3.org/2000/svg">
  <g transform="matrix(1 -0 0 1 0 0)">
    <path d="M531.692 199.385C586.751 199.385 631.385 154.751 631.385 99.6923C631.385 44.6336 586.751 -4.39828e-12 531.692 -2.83343e-12C476.634 -1.26857e-12 432 44.634 432 99.6923C432 154.751 476.634 199.385 531.692 199.385L531.692 199.385ZM100 332.308C100 387.366 144.634 432 199.692 432C254.751 432 299.385 387.366 299.385 332.308C299.385 277.249 254.751 232.615 199.692 232.615C144.634 232.615 100 277.249 100 332.308L100 332.308ZM332.615 332.308C332.615 387.366 377.249 432 432.308 432C487.366 432 532 387.366 532 332.308C532 277.249 487.366 232.615 432.308 232.615C377.249 232.615 332.615 277.249 332.615 332.308L332.615 332.308ZM99.6923 664.385C154.751 664.385 199.385 619.751 199.385 564.692C199.384 509.634 154.751 465 99.6922 465C44.6337 465 1.26857e-12 509.634 2.83343e-12 564.692C4.39829e-12 619.751 44.6338 664.385 99.6923 664.385L99.6923 664.385Z" fill="#000000" fill-rule="evenodd" transform="scale(1 1)" />
  </g>
</svg>